<svg width="364" height="302" viewBox="0 0 364 302" fill="none" xmlns="http://www.w3.org/2000/svg">
<rect x="1.14441e-05" y="0.23526" width="364" height="301.241" fill="#F8EBAA"/>
<path d="M15.6897 301.477V0.235306" stroke="#76BFC7" stroke-width="0.47069"/>
<path d="M31.3793 301.477V0.235367" stroke="#76BFC7" stroke-width="0.47069"/>
<path d="M47.069 301.477V0.235367" stroke="#FF7BAC" stroke-width="0.836782"/>
<path d="M62.7586 301.477V0.235367" stroke="#76BFC7" stroke-width="0.47069"/>
<path d="M78.4483 301.477V0.235367" stroke="#76BFC7" stroke-width="0.47069"/>
<path d="M94.1379 301.477V0.235367" stroke="#76BFC7" stroke-width="0.47069"/>
<path d="M109.828 301.477V0.235367" stroke="#76BFC7" stroke-width="0.47069"/>
<path d="M125.517 301.477V0.235367" stroke="#76BFC7" stroke-width="0.47069"/>
<path d="M141.207 301.477V0.235367" stroke="#76BFC7" stroke-width="0.47069"/>
<path d="M156.897 301.477V0.235367" stroke="#76BFC7" stroke-width="0.47069"/>
<path d="M172.586 301.477V0.235367" stroke="#76BFC7" stroke-width="0.47069"/>
<path d="M188.276 301.477V0.235367" stroke="#76BFC7" stroke-width="0.47069"/>
<path d="M203.966 301.477V0.235367" stroke="#76BFC7" stroke-width="0.47069"/>
<path d="M219.655 301.477V0.235367" stroke="#76BFC7" stroke-width="0.47069"/>
<path d="M235.345 301.477V0.235367" stroke="#76BFC7" stroke-width="0.47069"/>
<path d="M251.034 301.477V0.235367" stroke="#76BFC7" stroke-width="0.47069"/>
<path d="M266.724 301.477V0.235367" stroke="#76BFC7" stroke-width="0.47069"/>
<path d="M282.414 301.477V0.235367" stroke="#76BFC7" stroke-width="0.47069"/>
<path d="M298.103 301.477V0.235367" stroke="#76BFC7" stroke-width="0.47069"/>
<path d="M313.793 301.477V0.235367" stroke="#76BFC7" stroke-width="0.47069"/>
<path d="M329.483 301.477V0.235367" stroke="#76BFC7" stroke-width="0.47069"/>
<path d="M345.172 301.477V0.235367" stroke="#76BFC7" stroke-width="0.47069"/>
<path d="M360.862 301.477V0.235367" stroke="#76BFC7" stroke-width="0.47069"/>
<path d="M364 298.339L1.14441e-05 298.339" stroke="#76BFC7" stroke-width="0.47069"/>
<path d="M364 282.649L1.52588e-05 282.649" stroke="#76BFC7" stroke-width="0.47069"/>
<path d="M364 266.96L1.52588e-05 266.96" stroke="#76BFC7" stroke-width="0.47069"/>
<path d="M364 251.27L1.14441e-05 251.27" stroke="#76BFC7" stroke-width="0.47069"/>
<path d="M364 235.58L1.14441e-05 235.58" stroke="#76BFC7" stroke-width="0.47069"/>
<path d="M364 219.891L1.14441e-05 219.891" stroke="#76BFC7" stroke-width="0.47069"/>
<path d="M364 204.201L1.14441e-05 204.201" stroke="#76BFC7" stroke-width="0.47069"/>
<path d="M364 188.511L1.14441e-05 188.511" stroke="#76BFC7" stroke-width="0.47069"/>
<path d="M364 172.821L1.14441e-05 172.821" stroke="#76BFC7" stroke-width="0.47069"/>
<path d="M364 157.132L7.62939e-06 157.132" stroke="#76BFC7" stroke-width="0.47069"/>
<path d="M364 141.442L7.62939e-06 141.442" stroke="#76BFC7" stroke-width="0.47069"/>
<path d="M364 125.753L7.62939e-06 125.753" stroke="#76BFC7" stroke-width="0.47069"/>
<path d="M364 110.063L7.62939e-06 110.063" stroke="#76BFC7" stroke-width="0.47069"/>
<path d="M364 94.3734L7.62939e-06 94.3734" stroke="#76BFC7" stroke-width="0.47069"/>
<path d="M364 78.6836L7.62939e-06 78.6836" stroke="#76BFC7" stroke-width="0.47069"/>
<path d="M364 62.994L3.8147e-06 62.9941" stroke="#76BFC7" stroke-width="0.47069"/>
<path d="M364 47.3043L3.8147e-06 47.3043" stroke="#76BFC7" stroke-width="0.47069"/>
<path d="M364 31.6145L3.8147e-06 31.6145" stroke="#76BFC7" stroke-width="0.47069"/>
<path d="M364 15.9251L3.8147e-06 15.9252" stroke="#76BFC7" stroke-width="0.47069"/>
<path d="M364 0.235351L3.8147e-06 0.235367" stroke="#76BFC7" stroke-width="0.47069"/>
<circle cx="15.6897" cy="23.2469" r="7.32184" fill="black"/>
<circle cx="15.6897" cy="59.8559" r="7.32184" fill="black"/>
<circle cx="15.6897" cy="96.4653" r="7.32184" fill="black"/>
<circle cx="15.6897" cy="133.074" r="7.32184" fill="black"/>
<circle cx="15.6897" cy="169.684" r="7.32184" fill="black"/>
<circle cx="15.6897" cy="206.293" r="7.32184" fill="black"/>
<circle cx="15.6897" cy="242.902" r="7.32184" fill="black"/>
<circle cx="15.6897" cy="279.511" r="7.32184" fill="black"/>
</svg>
