<svg width="364" height="27" viewBox="0 0 364 27" fill="none" xmlns="http://www.w3.org/2000/svg">
<g clip-path="url(#clip0_1_205)">
<path opacity="0.15" d="M-0.668045 14.8239C-0.668045 8.2938 80.8615 3.00836 181.438 3.00836C282.014 3.00836 363.544 8.2938 363.544 14.8239C363.544 21.354 282.014 26.6395 181.438 26.6395C80.8615 26.6395 -0.668045 21.354 -0.668045 14.8239Z" fill="url(#paint0_radial_1_205)" style="mix-blend-mode:multiply"/>
<path d="M-0.668041 -105.948V11.793C0.51902 11.7569 4.11617 10.5663 4.7097 10.5483C4.76366 10.5483 4.81762 10.5483 4.87158 10.5483C5.41115 10.5302 5.95072 10.5122 6.50828 10.4942C7.10181 10.3859 7.69534 10.4581 8.30686 10.3318C8.90039 10.3859 9.49392 10.3138 10.1054 10.3498C10.699 10.2957 11.2925 10.1875 11.904 10.2236C12.4975 10.1875 13.0911 10.404 13.7026 10.2236C14.2961 10.873 14.8897 10.0973 15.5012 10.3859C16.0947 10.6024 16.6882 10.5663 17.2997 10.0793C17.8933 10.2777 18.4868 9.55614 19.0983 9.59222C19.6919 9.05104 20.2854 10.0793 20.8969 9.93496C21.4904 10.1695 22.084 10.3859 22.6955 9.98907C23.289 9.82672 23.8825 9.66438 24.4941 9.79064C24.7998 9.80869 25.0876 9.8628 25.3933 9.8628C25.6991 9.8628 25.9869 9.80869 26.2926 9.59222C26.5984 9.77261 26.8862 9.953 27.1919 9.8628C27.4977 9.97104 27.7854 9.79064 28.0912 9.64633C28.6847 9.91692 29.2783 9.4479 29.8898 9.59222C30.1955 9.3577 30.4833 9.57417 30.7891 9.3577C31.0948 9.33967 31.3826 9.1232 31.6884 9.52006C31.9941 9.32162 32.2819 8.90673 32.5876 9.033C32.8934 8.78046 33.1812 8.9428 33.4869 9.33966C33.7927 9.17731 34.0805 9.66436 34.3862 9.50201C34.692 9.12319 34.9798 9.59221 35.2855 9.39378C35.5913 9.50201 35.879 9.06907 36.1848 9.05103C36.4906 9.30358 36.7783 9.79064 37.0841 9.41182C37.3899 9.66437 37.6776 9.79064 37.9834 9.48398C38.2891 9.06908 38.5769 9.28554 38.8827 9.24947C39.1884 9.50201 39.4762 9.59221 39.782 9.15928C40.0877 9.26751 40.3755 9.26751 40.6812 9.15928C40.987 8.99693 41.2748 8.72633 41.5805 9.01496C41.8863 9.14124 42.1741 9.10516 42.4798 9.14124C42.7856 9.12319 43.0734 9.08711 43.3791 8.87064C43.6849 8.87064 43.9726 8.72634 44.2784 8.83457C44.5842 8.14909 44.8719 8.11301 45.1777 8.41967C45.4834 8.69025 45.7712 8.90672 46.077 9.01496C46.3827 8.60006 46.6705 9.30357 46.9763 8.97887C47.282 8.8526 47.5698 8.99692 47.8756 8.74437C48.1813 8.49183 48.4691 9.01496 48.7748 8.58203C49.0806 8.54595 49.3684 9.12319 49.6741 8.88869C50.1777 9.24947 50.6633 8.83457 51.167 8.76241C51.6706 9.05104 52.1742 8.14909 52.6598 8.78046C53.1634 9.68241 53.667 9.06908 54.1706 8.83457C54.6742 9.19535 55.1778 8.94281 55.6814 8.7083C56.185 8.3836 56.6886 8.67222 57.1922 8.49183C57.6958 8.2934 58.1994 9.19534 58.703 8.72633C59.1886 8.43771 59.6562 8.78045 60.1419 8.72633C60.6275 8.31143 61.1131 8.87064 61.5807 8.81653C62.0663 8.87064 62.534 8.74437 63.0196 8.72633C63.4872 8.32947 63.9548 8.5279 64.4225 8.74437C64.7282 8.83456 65.034 8.79849 65.3218 8.63614C65.6095 8.52791 65.8973 8.74438 66.1671 8.49183C66.4369 8.56398 66.7067 8.41967 66.9764 8.2934C67.2462 8.05889 67.498 7.62595 67.7498 8.14908C68.0016 8.14908 68.2534 8.18516 68.5052 7.95065C68.6311 7.49968 68.757 7.49968 68.8829 7.57183C69.0088 7.40948 69.1347 7.15694 69.2606 7.73419C69.6383 7.89655 69.9981 7.5538 70.3937 7.46361C70.7714 7.37341 71.1671 7.0487 71.5628 7.17497C71.9585 6.47145 72.3902 7.0487 72.8218 7.0487C72.9297 6.09264 73.0376 6.81419 73.1635 6.74204C73.2715 6.83224 73.3974 7.21107 73.5053 6.97655C73.7391 7.08479 73.9729 7.62595 74.2247 6.88636C74.7643 6.95851 75.2679 7.17497 75.7715 6.92243C76.0233 6.45341 76.2571 6.90439 76.4909 7.24713C76.7247 7.1389 76.9585 7.30125 77.1924 7.06674C77.4262 7.49968 77.642 7.44556 77.8758 7.37341C77.9837 7.24713 78.0916 6.88636 78.1996 6.95851C78.3075 7.06675 78.4154 7.04871 78.5233 7.40949C78.7391 8.20321 78.955 7.93262 79.1708 7.75224C79.2787 8.22125 79.3866 8.76242 79.4945 8.00478C79.6025 7.69812 79.7104 8.09496 79.8183 7.62595C79.9262 8.16712 80.0341 7.75222 80.124 8.07693C80.232 7.80634 80.3399 7.69812 80.4298 8.13105C80.5377 7.91458 80.6456 7.96869 80.7356 8.02281C80.8435 7.93262 80.9514 8.09497 81.0413 8.36555C81.2571 7.644 81.455 8.23929 81.6708 8.13105C81.8866 8.0589 82.0845 7.77027 82.3003 8.31144C82.5161 7.62596 82.714 8.3836 82.9298 8.56399C83.0377 8.88869 83.1456 8.9428 83.2536 8.99692C83.3615 8.9428 83.4694 8.92477 83.5773 9.14124C83.7931 9.21339 84.009 9.6824 84.2428 9.32162C84.4586 9.19535 84.6924 9.15928 84.9262 8.90673C85.1601 8.90673 85.3939 8.96085 85.6277 8.65418C85.8615 8.60007 86.1133 8.58203 86.3471 8.90673C86.5989 8.85262 86.8507 9.033 87.1025 8.96085C87.3543 9.10516 87.6241 9.39378 87.8939 9.15928C88.3615 9.46594 88.8112 9.24947 89.2428 9.24947C89.4587 9.33966 89.6745 9.53809 89.8903 9.42985C90.1061 9.42985 90.304 9.05104 90.5198 8.96085C90.9335 8.87065 91.3292 9.01497 91.7428 8.78046C92.1385 8.50987 92.5342 8.97887 92.9299 8.5279C93.1278 8.5279 93.3256 8.41967 93.5234 8.2934C93.7213 8.09497 93.9191 8.25732 94.117 8.05889C94.5127 7.82439 94.9083 7.98673 95.304 8.04086C95.5019 8.22124 95.7177 8.11301 95.9155 8.09497C96.1134 7.89654 96.3292 7.60793 96.545 7.75224C96.9767 7.78831 97.4084 7.46361 97.858 7.68008C98.0918 8.02282 98.3077 7.68008 98.5415 7.68008C98.7753 7.53577 98.9911 7.53576 99.2249 7.58987C99.6926 7.26517 100.142 7.51772 100.61 7.58987C100.844 7.31929 101.077 7.66203 101.311 7.31929C101.545 7.15694 101.779 7.17498 102.013 7.39145C102.48 7.28321 102.948 7.4636 103.416 7.6981C103.883 8.04085 104.351 7.80635 104.819 7.87851C105.052 7.78831 105.286 7.86047 105.52 7.93262C105.754 8.04086 105.988 8.14909 106.221 7.89654C106.455 7.73418 106.689 7.71616 106.923 7.75224C107.157 7.86047 107.39 7.86046 107.624 8.02281C108.092 8.02281 108.578 8.16713 109.045 7.98674C109.495 7.58988 109.944 7.80634 110.376 8.04086C110.808 8.04086 111.257 7.37341 111.689 7.89654C112.121 8.41967 112.552 8.99693 112.984 7.93262C113.416 8.31144 113.829 7.60792 114.261 7.66203C114.675 6.97655 115.106 7.98673 115.52 7.57183C115.934 7.33733 116.347 6.90439 116.761 7.31929C117.175 7.73418 117.588 7.28321 118.002 7.01263C118.416 7.39145 118.829 6.97655 119.225 6.92243C119.639 6.54361 120.034 6.12872 120.448 6.79616C120.862 6.79616 121.257 6.95851 121.671 6.54361C122.175 5.82205 122.696 6.41735 123.2 6.32715C123.452 6.77813 123.704 6.59773 123.973 6.36322C124.225 6.3993 124.495 6.07461 124.747 6.12872C124.999 6.45342 125.268 6.85028 125.52 6.00245C125.772 5.46128 126.042 4.86599 126.294 5.80402C126.545 6.27303 126.815 5.62362 127.067 5.5695C127.337 5.80401 127.588 5.42519 127.858 5.8942C128.128 5.53342 128.38 5.22676 128.65 5.37107C128.919 5.60558 129.189 5.02834 129.441 5.4252C129.711 5.49736 129.981 5.4252 130.25 5.80402C130.52 6.1648 130.79 6.12872 131.06 5.96636C131.401 6.45341 131.725 5.80402 132.067 6.07461C132.409 6.47147 132.732 5.60558 133.074 6.14675C133.29 6.83223 133.524 5.80401 133.74 6.14675C133.848 5.93028 133.955 6.29106 134.081 5.76794C134.189 5.80401 134.297 5.40716 134.423 5.47932C134.531 5.20873 134.639 5.06441 134.765 5.60559C134.873 5.47932 134.981 6.14676 135.107 6.32715C135.448 6.39931 135.772 6.18283 136.114 6.23695C136.455 6.18283 136.779 6.41735 137.121 6.32715C137.571 6.1648 137.984 6.11069 138.38 6.39931C138.578 6.66989 138.776 6.59773 138.973 6.36322C139.171 6.12872 139.351 6.00245 139.531 5.94833C139.891 5.85814 140.25 5.73186 140.61 5.53343C140.952 5.335 141.294 5.55148 141.635 5.35304C141.977 4.90207 142.319 5.40716 142.661 5.28088C143.002 5.60559 143.362 5.40717 143.74 4.84795C144.099 4.63148 144.495 4.90206 144.891 4.73971C145.286 4.54128 145.7 4.48717 146.15 4.72168C146.743 5.02834 147.283 4.64951 147.805 4.93814C148.056 4.93814 148.326 5.13657 148.578 5.28088C148.83 5.4252 149.099 5.49736 149.387 5.22677C150.412 5.5154 151.384 5.74989 152.319 5.37107C153.272 6.05656 154.189 5.02834 155.089 5.04639C155.988 5.53344 156.887 5.13657 157.787 4.41501C158.686 4.36089 159.567 4.2707 160.484 3.65737C161.384 3.47698 162.319 3.29659 163.254 2.93581C163.722 2.88169 164.208 2.73738 164.693 2.41267C165.179 2.34052 165.682 2.21425 166.186 2.41267C166.69 2.01582 167.211 1.97975 167.751 2.14211C168.29 1.51073 168.83 2.35856 169.387 2.28641C169.909 1.94366 170.395 1.2221 170.862 2.28641C171.33 1.56484 171.762 2.68327 172.193 2.61111C172.607 3.47698 173.021 2.34052 173.416 2.8817C173.812 3.56718 174.19 3.27856 174.549 3.2064C174.927 3.83776 175.287 3.18836 175.646 3.60326C176.006 3.58522 176.366 4.25266 176.744 3.90992C177.103 3.5311 177.481 4.23463 177.877 4.07227C178.254 3.96404 178.65 4.34286 179.064 4.57737C179.477 4.41502 179.909 4.27071 180.359 4.72168C180.808 4.95619 181.276 5.20872 181.78 5.0103C182.337 5.15461 182.877 4.4511 183.434 5.1005C183.992 5.44324 184.531 4.64952 185.089 5.08246C185.647 4.82991 186.186 4.75776 186.744 4.97423C187.301 4.41502 187.841 4.55932 188.398 4.81187C188.956 4.75775 189.513 4.25266 190.053 4.63148C190.611 4.66756 191.168 4.36089 191.726 4.43305C192.283 4.84795 192.841 4.34286 193.398 4.37894C193.956 4.16247 194.514 3.42287 195.071 4.12639C195.629 4.19855 196.186 4.30678 196.762 3.8558C197.319 3.31464 197.895 3.76561 198.452 4.10835C198.938 4.41501 199.388 4.07227 199.837 4.46912C200.287 4.55932 200.701 4.23462 201.114 4.43305C201.528 4.39697 201.906 4.01816 202.301 4.14443C202.499 4.57737 202.679 4.19854 202.859 4.34285C203.039 4.55932 203.219 4.79384 203.399 4.97423C203.758 4.79384 204.118 5.42519 204.46 5.37107C204.801 5.33499 205.161 5.44324 205.503 5.62363C205.845 5.8401 206.186 5.69578 206.546 5.78597C206.888 5.80402 207.247 6.05656 207.607 6.27303C207.967 6.6338 208.327 6.70597 208.722 6.39931C209.1 6.38127 209.496 6.14676 209.891 6.83224C210.305 6.8142 210.719 7.04871 211.15 7.2291C211.582 7.3193 212.05 7.33733 212.517 7.15694C212.895 8.00478 213.273 8.04086 213.65 7.68008C214.028 7.39146 214.406 6.95852 214.802 7.2291C215.179 7.9687 215.575 7.51772 215.953 7.80635C216.33 7.60792 216.726 7.51772 217.104 7.24713C217.481 7.35536 217.859 7.44556 218.219 7.31929C218.596 7.42752 218.956 7.21106 219.316 7.39145C219.694 7.77026 220.053 7.66203 220.395 7.66203C220.737 7.78831 221.079 7.39144 221.384 7.77026C221.708 7.58987 222.014 7.73418 222.338 7.77026C222.643 7.98673 222.949 8.23929 223.255 8.25732C223.561 8.16713 223.866 8.87064 224.19 8.40163C224.514 8.60006 224.82 8.32948 225.161 8.69025C225.503 8.76241 225.845 9.23142 226.204 9.17731C226.564 9.14123 226.942 9.88083 227.356 8.92476C227.805 9.08711 228.237 8.85261 228.686 8.69025C229.118 9.17731 229.568 8.85262 229.999 8.83457C230.431 9.41182 230.881 9.26751 231.312 9.23143C231.744 9.01497 232.194 9.46593 232.643 8.63614C233.093 9.4479 233.579 9.59221 234.118 9.01496C234.64 8.85261 235.197 8.5279 235.773 8.5279C236.348 8.83456 236.96 7.2291 237.571 8.23928C238.183 7.86047 238.812 8.13105 239.442 8.49183C240.072 8.78045 240.701 8.18517 241.331 8.65418C241.96 8.50987 242.572 8.54594 243.165 8.56399C243.759 8.3836 244.352 8.36555 244.892 8.54594C245.449 8.50986 245.971 8.43771 246.456 8.81653C246.942 9.55613 247.392 9.61024 247.805 9.50201C248.201 9.89886 248.561 9.64632 248.867 9.30357C249.406 9.19534 249.946 8.92477 250.485 8.83457C251.025 8.83457 251.564 9.05104 252.104 8.83457C252.644 8.41968 253.183 8.88869 253.705 8.90673C254.244 8.67223 254.766 9.14124 255.305 8.65418C255.845 8.92477 256.367 8.97887 256.906 8.79848C257.446 9.55612 257.967 9.08711 258.489 8.67222C259.011 8.58202 259.55 9.15927 260.072 8.56399C260.593 9.10516 261.115 9.71848 261.636 8.79848C262.158 8.38359 262.68 7.644 263.183 8.32948C263.705 7.93262 264.208 7.68008 264.73 8.88869C265.234 8.22124 265.755 9.52005 266.259 8.74437C266.762 8.2934 267.266 7.89654 267.77 8.8526C268.273 7.87849 268.759 8.3836 269.244 8.25732C269.73 8.58202 270.216 8.25732 270.701 8.58203C271.187 8.2934 271.673 8.60006 272.14 8.41967C272.608 8.43771 273.093 8.50986 273.561 7.9687C273.885 7.73418 274.208 7.84242 274.514 7.78831C274.82 7.73419 275.126 7.644 275.432 7.33733C275.737 7.28322 276.043 7.03068 276.349 6.85029C276.655 6.36323 276.978 6.63381 277.302 6.68793C277.626 6.47146 277.95 6.59772 278.309 6.21891C278.651 6.11067 279.011 5.96637 279.388 6.20088C279.766 5.7499 280.144 6.34519 280.557 6.00245C280.971 6.5797 281.403 6.23695 281.852 6.00245C282.086 6.255 282.302 6.56165 282.518 6.27303C282.734 6.12871 282.95 5.82206 283.165 6.05656C283.381 5.78598 283.597 5.94833 283.813 5.94833C284.029 5.78598 284.245 6.5797 284.46 6.18284C284.676 5.73186 284.892 5.4252 285.09 5.93029C285.306 6.0746 285.522 6.56165 285.737 6.34518C285.953 5.9844 286.169 5.71382 286.385 5.71382C286.601 5.51539 286.817 5.82205 287.05 6.41734C287.32 6.79616 287.572 6.77812 287.842 6.86832C288.094 6.90439 288.363 6.86832 288.615 6.70597C288.867 7.19302 289.119 6.85028 289.371 6.63381C289.622 6.63381 289.874 6.25499 290.126 6.36322C290.378 6.23695 290.63 5.64167 290.863 6.39931C291.115 6.21892 291.349 6.68793 291.601 6.23695C291.853 6.32715 292.086 6.18284 292.32 6.32715C292.554 5.46128 292.806 6.23695 293.04 5.93029C293.273 5.8401 293.507 6.00245 293.741 6.12872C293.975 6.07461 294.209 6.12872 294.442 5.87617C294.676 6.30911 294.91 5.2448 295.144 5.73186C295.378 5.40716 295.612 5.02834 295.827 5.31696C296.061 5.47931 296.295 5.15461 296.511 5.0103C296.745 4.97422 296.96 5.1546 297.194 5.2448C297.428 5.51539 297.644 5.35303 297.878 5.11853C298.112 5.08245 298.327 5.26284 298.561 4.66755C298.795 4.12638 299.011 4.52325 299.245 4.36089C299.479 4.00011 299.694 4.25266 299.928 4.10835C300.378 3.47698 300.827 4.14443 301.277 4.12639C301.727 3.71149 302.176 4.12639 302.626 4.12639C303.076 3.40483 303.525 4.28874 303.993 3.8558C304.443 4.01815 304.91 3.49503 305.378 3.8558C305.845 3.35071 306.313 3.08012 306.781 4.03619C307.069 5.06441 307.356 4.25267 307.626 4.39698C307.896 4.10835 308.166 4.32482 308.417 4.39698C308.687 3.83777 308.939 4.45109 309.227 4.75775C309.497 5.28088 309.784 4.70364 310.108 4.72168C310.522 4.6856 310.917 4.86598 311.331 4.81187C311.727 3.90992 312.141 5.28088 312.536 4.81187C312.932 4.2707 313.328 4.50521 313.723 4.72168C314.119 3.47699 314.497 4.41502 314.874 4.52325C315.252 5.5154 315.63 3.94601 315.989 4.59541C316.349 3.89188 316.709 3.24248 317.051 4.00012C317.392 3.58522 317.734 3.33267 318.04 3.45895C318.364 3.60326 318.669 2.39465 318.957 3.40483C319.245 3.946 319.569 3.69345 319.91 3.71149C320.252 3.27855 320.612 3.08013 320.989 2.84562C321.367 2.68327 321.763 3.1162 322.159 2.62915C322.554 2.3766 322.968 2.53896 323.382 2.43072C323.795 1.7272 324.209 2.21425 324.623 1.90759C325.036 1.7272 325.432 2.59307 325.828 2.30445C326.223 2.61111 326.601 1.97974 326.979 2.21425C327.338 1.81739 327.698 2.28642 328.022 2.59308C328.364 3.02602 328.651 3.09817 328.921 2.95385C329.191 3.13424 329.425 3.22444 329.659 3.2966C329.91 3.74757 330.162 3.35071 330.468 3.65737C330.774 3.90992 331.133 3.31464 331.565 3.8558C331.907 4.48717 332.249 4.30678 332.608 4.28873C332.95 4.30678 333.31 4.00011 333.669 3.8558C334.029 3.47698 334.389 3.67541 334.749 4.03619C335.108 3.8558 335.468 4.14443 335.828 3.74757C336.367 3.09817 336.871 3.36875 337.339 3.54914C337.806 4.18051 338.22 4.72168 338.616 4.05423C339.011 3.946 339.371 4.03619 339.713 4.34285C340.054 4.10835 340.378 4.01815 340.702 4.79382C341.026 4.55932 341.331 4.68559 341.637 5.0103C341.943 5.78597 342.249 4.90206 342.572 5.69578C342.896 5.74989 343.22 5.91225 343.562 6.21891C343.903 5.5695 344.263 7.1389 344.659 6.48949C345.054 6.36322 345.468 8.02282 345.936 6.83224C346.403 7.15694 346.889 7.58987 347.429 6.88636C347.752 6.8142 348.076 7.24714 348.382 7.01263C348.688 7.48164 349.011 6.21892 349.317 6.83224C349.623 6.86832 349.929 6.45341 350.252 6.724C350.558 6.2189 350.864 7.10283 351.188 6.65186C351.493 6.05656 351.817 6.20087 352.123 6.76009C352.429 7.17498 353.796 8.50986 354.119 8.8526C354.623 8.47379 353.903 9.52006 354.389 9.66438C354.857 9.79064 355.324 9.46594 355.774 9.59222C356.224 9.30359 356.655 9.21339 357.069 9.32162C357.483 9.39378 357.896 9.6283 358.292 9.98907C359.083 10.2957 359.803 11.1796 360.486 10.6204C361.17 10.7467 361.961 12.5506 362.519 12.6408C363.094 12.9114 363.346 14.5349 363.814 14.8055V-105.948H-0.668041ZM16.6882 -0.906494C12.9472 -0.906494 9.92558 -3.93705 9.92558 -7.68916C9.92558 -11.4413 12.9472 -14.4718 16.6882 -14.4718C20.4293 -14.4718 23.4509 -11.4413 23.4509 -7.68916C23.4509 -3.93705 20.4293 -0.906494 16.6882 -0.906494ZM16.6882 -27.5681C12.9472 -27.5681 9.92558 -30.5987 9.92558 -34.3508C9.92558 -38.1029 12.9472 -41.1335 16.6882 -41.1335C20.4293 -41.1335 23.4509 -38.1029 23.4509 -34.3508C23.4509 -30.5987 20.4293 -27.5681 16.6882 -27.5681ZM16.6882 -54.2298C12.9472 -54.2298 9.92558 -57.2604 9.92558 -61.0125C9.92558 -64.7646 12.9472 -67.7951 16.6882 -67.7951C20.4293 -67.7951 23.4509 -64.7646 23.4509 -61.0125C23.4509 -57.2604 20.4293 -54.2298 16.6882 -54.2298ZM16.6882 -80.8915C12.9472 -80.8915 9.92558 -83.922 9.92558 -87.6741C9.92558 -91.4262 12.9472 -94.4568 16.6882 -94.4568C20.4293 -94.4568 23.4509 -91.4262 23.4509 -87.6741C23.4509 -83.922 20.4293 -80.8915 16.6882 -80.8915Z" fill="#F8EBAA"/>
<path d="M15.6897 3.42168e-05L15.6897 12.5518" stroke="#76BFC7" stroke-width="0.47069"/>
<path d="M31.3793 3.42168e-05L31.3793 12.5518" stroke="#76BFC7" stroke-width="0.47069"/>
<path d="M47.069 5.15301e-05L47.069 11.5058" stroke="#FF7BAC" stroke-width="0.836782"/>
<path d="M62.7586 2.49166e-05L62.7586 16.7357" stroke="#76BFC7" stroke-width="0.47069"/>
<path d="M78.4483 0.000129879L78.4483 10.4599" stroke="#76BFC7" stroke-width="0.47069"/>
<path d="M94.1379 3.42168e-05L94.1379 12.5518" stroke="#76BFC7" stroke-width="0.47069"/>
<path d="M109.828 7.60332e-06L109.828 17.7816" stroke="#76BFC7" stroke-width="0.47069"/>
<path d="M125.517 0.000129879L125.517 10.4599" stroke="#76BFC7" stroke-width="0.47069"/>
<path d="M141.207 5.15301e-05L141.207 11.5058" stroke="#76BFC7" stroke-width="0.47069"/>
<path d="M156.897 0.000139179L156.897 6.276" stroke="#76BFC7" stroke-width="0.47069"/>
<path d="M172.586 6.02892e-05L172.586 7.3219" stroke="#76BFC7" stroke-width="0.47069"/>
<path d="M188.276 -4.52138e-05L188.276 13.5977" stroke="#76BFC7" stroke-width="0.47069"/>
<path d="M203.966 -1.80593e-05L203.966 8.3678" stroke="#76BFC7" stroke-width="0.47069"/>
<path d="M219.655 0.000208227L219.655 9.414" stroke="#76BFC7" stroke-width="0.47069"/>
<path d="M235.345 -4.52138e-05L235.345 13.5977" stroke="#76BFC7" stroke-width="0.47069"/>
<path d="M251.034 5.15301e-05L251.034 11.5058" stroke="#76BFC7" stroke-width="0.47069"/>
<path d="M266.724 3.42168e-05L266.724 12.5518" stroke="#76BFC7" stroke-width="0.47069"/>
<path d="M282.414 0.000103265L282.414 15.6898" stroke="#76BFC7" stroke-width="0.47069"/>
<path d="M298.103 3.42168e-05L298.103 12.5518" stroke="#76BFC7" stroke-width="0.47069"/>
<path d="M313.793 0.000208227L313.793 9.414" stroke="#76BFC7" stroke-width="0.47069"/>
<path d="M329.483 3.42168e-05L329.483 12.5518" stroke="#76BFC7" stroke-width="0.47069"/>
<path d="M345.172 -4.52138e-05L345.172 13.5977" stroke="#76BFC7" stroke-width="0.47069"/>
<path d="M360.862 3.42168e-05L360.862 12.5518" stroke="#76BFC7" stroke-width="0.47069"/>
<g filter="url(#filter0_d_1_205)">
<path d="M11.3282 13.6507C11.9038 13.6867 12.4793 14.0295 13.0369 14.2099C13.6124 15.4004 14.188 15.202 14.7455 13.8491C15.3211 13.2899 15.8966 13.2538 16.4542 14.246C17.0297 14.8052 17.6053 14.6067 18.1628 13.8671C18.7384 12.0452 19.3139 13.1275 19.8715 14.282C20.447 14.8412 21.0226 14.9495 21.5801 14.6608C22.1557 14.5526 22.7312 13.7769 23.2888 14.3181C23.8643 15.1479 24.4399 13.344 24.9974 13.795C25.573 15.0397 26.1485 12.7848 26.7061 14.3542C27.2816 15.1299 27.8572 14.5707 28.4147 14.3722C28.7025 14.4985 28.9903 15.6169 29.278 14.4985C29.5658 13.1636 29.8536 14.1558 30.1413 14.3903C30.7169 13.795 31.2924 13.8311 31.85 14.5887C32.1378 15.635 32.4255 13.4162 32.7133 14.282C33.0011 15.1299 33.2889 13.8311 33.5766 14.4263C33.8644 13.9213 34.1522 15.0938 34.44 15.3824C34.7277 16.104 35.0155 15.1118 35.3033 14.5165C35.591 14.4264 35.8788 14.9675 36.1666 15.5267C36.4544 14.9134 36.7421 14.3361 37.0299 14.4624C37.6054 13.7589 38.181 14.7511 38.7386 14.246C39.3141 14.4985 39.8896 11.9911 40.4472 14.5165C41.0227 15.3103 41.5983 14.1377 42.1558 14.1377C42.7314 14.6969 43.3069 15.1479 43.8645 14.5526C44.2962 14.282 44.7278 14.4805 45.1775 14.6067C45.6091 14.1197 46.0588 14.5165 46.4904 14.6067C46.7062 14.246 46.9221 13.9032 47.1379 14.1377C47.3537 14.9675 47.5696 13.6687 47.7854 15.0758C48.2171 14.9314 48.6487 13.7769 49.0804 14.8052C49.512 14.5526 49.9437 15.9055 50.3574 15.0397C50.789 15.202 51.2027 14.1738 51.6164 15.2922C51.8322 14.4985 52.03 14.1377 52.2459 14.6789C52.4437 15.0758 52.6595 14.4985 52.8574 15.5989C53.271 14.246 53.6667 17.98 54.0624 16.1761C54.4941 17.3487 54.9257 16.6632 55.3394 17.4028C55.5552 16.9338 55.7531 17.6193 55.9689 18.1243C56.1668 18.413 56.3826 18.8639 56.5804 17.6553C56.7783 16.8436 56.9941 17.944 57.1919 16.6812C57.3898 15.3644 57.6056 16.2483 57.8035 17.5471C58.0013 18.4851 58.2171 20.1628 58.415 18.2506C58.6308 20.4153 58.8287 19.2428 59.0445 19.1706C59.4582 18.6294 59.8898 16.4106 60.3395 19.6035C60.7891 20.8122 61.2387 19.4953 61.7064 20.1988C61.8862 21.9306 62.0481 17.1863 62.21 18.8639C62.3718 18.413 62.5517 17.6373 62.7136 20.5776C62.8755 22.3815 63.0553 22.9588 63.2172 21.642C63.3791 22.58 63.5409 20.6137 63.7028 20.3431C64.0265 16.8255 64.3503 22.7604 64.674 19.82C64.8359 17.7816 64.9978 19.7839 65.1596 18.9181C65.2316 20.3431 65.3215 17.5832 65.3935 18.5573C65.4654 17.511 65.5553 15.671 65.6273 20.0004C65.933 20.6137 66.2568 16.6271 66.5625 19.9283C66.8683 15.653 67.1741 16.0679 67.4798 19.2788C67.7136 17.4749 67.9295 17.3487 68.1633 18.7557C68.3971 16.9518 68.6129 19.5314 68.8467 18.5392C69.2964 20.9023 69.746 17.5832 70.1957 17.6914C70.4115 19.5675 70.6453 18.6114 70.8611 17.1502C71.077 14.0656 71.3108 14.9495 71.5266 16.555C71.9763 15.8334 72.4259 18.7737 72.8755 15.8334C73.1094 15.8334 73.3252 15.9777 73.559 15.4906C73.7928 17.0781 74.0086 17.2765 74.2425 15.0758C74.6921 17.4749 75.1597 14.3181 75.6274 14.0475C76.095 15.8334 76.5626 15.9957 77.0482 13.6507C77.2821 17.3487 77.5339 13.6507 77.7677 13.3079C78.0195 15.9236 78.2533 13.5605 78.5051 12.6946C78.667 11.035 78.8468 14.0475 79.0087 12.7848C79.1706 15.1118 79.3504 13.5064 79.5123 12.5142C79.854 11.1793 80.1778 12.1354 80.5195 12.1895C80.6814 13.9213 80.8612 13.7228 81.0231 13.5064C81.185 14.6789 81.3648 13.7409 81.5267 12.6224C81.6886 12.6946 81.8684 13.4342 82.0303 13.344C82.1922 12.4601 82.372 13.1275 82.5339 12.0091C82.8756 10.3134 83.1994 11.5221 83.5411 11.6664C83.8828 11.6483 84.2066 10.8185 84.5483 12.1174C84.8001 10.8907 85.0519 13.1817 85.3037 11.9009C85.5555 11.9911 85.8073 13.0373 86.0591 12.3699C86.3109 13.4703 86.5627 13.2718 86.7965 13.4883C86.9224 15.202 87.0483 15.2742 87.1742 14.0475C87.3001 14.9675 87.426 14.715 87.5519 12.7487C87.8037 14.4083 88.0555 12.5683 88.2893 14.1377C88.5411 12.0272 88.775 12.7848 89.0268 13.4342C89.2786 13.4883 89.5124 13.6507 89.7642 12.9832C90.016 14.5165 90.2498 13.344 90.5016 13.8491C90.9872 14.0475 91.4728 13.4522 91.9584 14.282C92.2102 14.8232 92.4441 14.5346 92.6959 15.202C92.9297 15.8154 93.1815 16.5189 93.4153 15.2922C93.5412 15.4365 93.6491 15.7612 93.775 16.2663C93.9009 16.3565 94.0088 16.0499 94.1347 17.2224C94.3685 17.2765 94.6203 17.8177 94.8542 16.4648C95.088 14.1377 95.3398 16.4106 95.5736 16.0859C95.8074 16.8616 96.0412 17.493 96.293 16.9518C96.5268 17.7636 96.7606 18.4671 96.9945 18.9541C97.2283 18.0522 97.4621 17.9981 97.6959 18.3408C98.1635 16.1942 98.6312 19.2247 99.0988 18.7016C99.3326 18.9541 99.5664 19.2247 99.8002 18.413C100.034 17.6914 100.268 17.8177 100.484 19.5855C100.951 19.9824 101.401 20.1808 101.851 20.4333C102.048 19.333 102.246 21.5157 102.444 21.5878C102.642 21.191 102.84 21.3894 103.038 21.4616C103.236 21.8043 103.433 22.8145 103.649 20.7941C103.847 19.5133 104.063 22.0208 104.279 21.7141C104.495 22.8866 104.692 22.6702 104.908 22.0568C105.124 22.8145 105.34 22.4357 105.556 23.049C105.664 23.3376 105.772 24.5462 105.879 24.5462C105.987 24.9251 106.095 24.2937 106.203 23.518C106.311 24.3117 106.419 24.8348 106.545 24.7627C106.653 24.6905 106.761 23.987 106.887 22.3455C107.336 22.6521 107.786 20.8122 108.218 21.6961C108.649 21.0106 109.099 22.3094 109.513 21.8945C109.728 21.8945 109.944 24.9611 110.142 22.5619C110.358 19.82 110.556 23.969 110.772 21.2631C111.185 23.3737 111.581 20.9384 111.977 20.7039C112.426 21.0647 112.858 19.1345 113.29 20.5235C113.397 18.9722 113.505 19.6035 113.613 20.5596C113.721 21.1729 113.829 21.678 113.937 19.8381C114.153 19.9102 114.369 19.5494 114.585 19.0083C114.692 19.1345 114.8 18.1063 114.908 17.9079C115.016 17.5291 115.124 16.6632 115.232 17.511C115.448 15.5448 115.664 19.0263 115.88 17.3306C115.987 17.1502 116.095 15.653 116.203 16.6271C116.311 16.7173 116.419 17.1142 116.527 17.4389C116.743 18.0161 116.959 16.9157 117.174 17.1683C117.39 15.9777 117.606 15.9957 117.822 16.4828C118.038 16.9518 118.254 16.7714 118.469 16.8436C118.577 15.9416 118.685 14.282 118.793 14.6608C118.901 15.2381 119.009 14.9495 119.117 15.9416C119.225 12.8569 119.333 17.1502 119.441 16.9879C119.549 16.3926 119.657 17.9439 119.764 15.3644C119.872 15.9416 119.98 14.4083 120.088 14.3361C120.196 14.1197 120.304 13.1636 120.412 13.6507C120.52 14.4083 120.628 13.4342 120.736 12.3879C120.844 11.9911 120.952 11.3056 121.059 13.7228C121.275 11.0531 121.491 14.5887 121.725 12.9471C121.833 12.3519 121.941 12.8209 122.049 11.973C122.157 12.406 122.264 11.8829 122.39 13.7409C122.606 14.3362 122.84 13.6507 123.056 12.875C123.272 13.2177 123.505 10.548 123.739 13.1817C123.973 11.7746 124.189 10.9087 124.423 11.9009C124.657 9.97071 124.872 11.3236 125.106 12.4601C125.34 12.4601 125.574 14.8412 125.808 13.7048C126.041 14.4263 126.275 15.2742 126.509 12.6405C126.743 12.2436 126.977 13.2899 127.211 12.7307C127.336 12.9652 127.444 11.955 127.57 11.3417C127.696 9.14092 127.804 10.4578 127.93 11.7025C128.056 11.3958 128.164 12.4781 128.29 13.4342C128.416 13.6146 128.524 12.5323 128.649 12.3879C128.703 12.893 128.775 13.9213 128.829 13.0554C128.883 13.3079 128.955 11.955 129.009 11.8828C129.135 12.6946 129.261 12.3699 129.387 11.7025C129.639 11.3597 129.89 10.8185 130.142 11.017C130.394 10.2593 130.646 11.017 130.898 11.6123C131.221 10.7464 131.545 9.59189 131.869 11.7566C132.031 11.7025 132.193 11.7025 132.354 10.4397C132.516 9.19504 132.678 9.68209 132.84 11.973C133.164 13.7769 133.47 9.80836 133.793 12.2256C134.117 11.9009 134.423 13.4522 134.729 12.5142C135.034 12.5683 135.358 13.3621 135.664 12.5142C135.97 11.5942 136.293 13.1456 136.599 13.0734C137.067 13.362 137.552 12.2256 138.02 13.4162C138.146 10.7103 138.254 10.1691 138.38 11.7927C138.506 12.1534 138.614 12.0813 138.739 12.5322C138.973 12.8209 139.225 13.9393 139.477 13.6146C139.729 13.8852 139.962 14.0836 140.214 13.6687C140.466 12.2436 140.7 14.0656 140.952 13.9573C141.203 14.0114 141.437 13.1275 141.671 12.9291C141.905 13.1636 142.157 10.8907 142.391 13.4703C142.624 14.7871 142.858 15.0757 143.11 15.1659C143.344 15.1118 143.578 15.202 143.811 14.1738C144.045 11.2515 144.279 12.2797 144.513 13.6326C144.747 15.0216 144.98 14.6609 145.214 12.7126C145.448 13.5064 145.682 13.0554 145.916 12.3338C146.15 9.48365 146.383 10.7825 146.617 11.937C146.851 11.7746 147.085 9.03268 147.319 11.8287C147.552 10.3856 147.786 12.893 148.002 11.5762C148.236 9.91659 148.47 9.7362 148.686 10.2954C148.919 9.15896 149.153 11.3056 149.369 10.6201C149.603 10.8727 149.837 10.8366 150.053 11.1974C150.286 11.2515 150.52 11.4679 150.754 10.3315C150.988 9.86247 151.222 7.30093 151.455 9.37542C151.689 11.8287 151.923 10.3495 152.157 9.71817C152.265 10.7644 152.391 9.12288 152.517 9.89855C152.642 9.37542 152.75 10.0789 152.876 8.22092C153.002 7.39113 153.11 7.26487 153.236 7.75192C153.362 8.36525 153.47 8.96053 153.596 9.15896C153.829 8.20289 154.063 8.32916 154.315 7.84211C154.549 6.41703 154.801 6.97624 155.035 8.13074C155.268 6.50723 155.52 6.20055 155.754 6.27271C155.988 6.68761 156.24 7.35506 156.491 8.36524C156.779 8.85229 157.067 9.15895 157.355 9.19503C157.642 9.23111 157.93 9.01465 158.218 8.4374C158.794 6.45311 159.351 10.584 159.927 8.13074C160.502 9.93464 161.06 9.66405 161.617 7.5174C162.175 8.49151 162.732 6.72369 163.308 8.56367C163.866 9.51974 164.423 7.30094 164.981 8.81622C165.538 5.26253 166.096 11.3958 166.653 9.50169C167.211 5.46095 167.768 7.51741 168.308 8.1127C168.866 10.097 169.405 9.84444 169.963 10.7644C170.52 7.98642 171.06 11.7205 171.617 11.7746C172.175 9.60993 172.715 9.5919 173.272 12.1895C173.83 14.5887 174.387 10.6562 174.927 12.0813C175.484 14.0475 176.042 8.90641 176.599 13.5966C177.157 17.3667 177.715 16.3204 178.272 14.8954C178.83 16.2663 179.387 14.8954 179.963 14.8232C180.251 13.5244 180.52 13.813 180.808 14.3542C181.096 14.8954 181.384 15.671 181.653 15.3103C182.229 15.3644 182.787 11.1432 183.362 15.6891C183.65 16.4287 183.938 16.591 184.225 16.2844C184.513 15.1659 184.801 16.1942 185.089 16.3204C185.377 17.2946 185.664 17.8357 185.97 17.0781C186.114 17.6734 186.258 17.2043 186.402 17.2945C186.546 16.573 186.69 16.6091 186.833 16.0138C187.103 16.6632 187.391 17.6012 187.661 15.6169C187.733 16.9338 187.805 16.1942 187.877 16.9157C187.949 16.5189 188.02 16.8255 188.092 16.2122C188.236 16.8436 188.362 15.4906 188.506 15.9416C188.776 13.813 189.064 16.7714 189.333 15.7252C189.603 15.7252 189.891 13.6687 190.161 15.7432C190.305 16.0318 190.431 15.3103 190.574 14.5526C190.718 13.9393 190.844 13.8311 190.988 15.4365C191.258 15.6169 191.528 16.2844 191.797 16.591C192.067 16.3385 192.337 15.2561 192.607 16.7714C192.751 17.1142 192.877 16.3024 193.021 15.1659C193.164 13.7048 193.29 15.7071 193.434 15.0216C193.578 14.4264 193.704 14.4985 193.848 15.1479C193.992 16.0138 194.118 16.0318 194.262 13.7048C194.531 14.9675 194.801 13.7228 195.071 14.5346C195.61 14.6969 196.15 14.6969 196.69 13.9754C196.959 14.282 197.229 13.1275 197.499 13.326C197.769 13.9934 198.039 13.5064 198.308 12.9291C198.578 12.3879 198.848 13.5605 199.118 13.4703C199.387 13.4162 199.657 13.1636 199.909 12.7848C200.449 12.0632 200.97 13.5064 201.51 12.5142C201.78 12.0993 202.049 12.1715 202.301 12.2075C202.571 12.2436 202.841 12.1174 203.093 11.5942C203.362 11.0711 203.632 10.2954 203.884 10.548C204.154 12.3699 204.423 9.46562 204.675 10.8727C205.215 11.5221 205.736 11.4138 206.276 10.566C206.546 9.77228 206.816 8.87033 207.067 10.9809C207.337 10.7103 207.607 11.5221 207.859 10.2774C208.398 11.4679 208.92 12.8028 209.459 9.86248C209.999 11.4138 210.521 10.3495 211.06 9.57385C211.33 9.80836 211.6 12.4601 211.87 10.2413C212.139 7.55349 212.409 8.6719 212.679 9.62796C212.949 10.6562 213.219 11.6664 213.488 10.4578C213.758 8.97857 214.028 12.5683 214.298 9.98875C214.567 10.6382 214.837 10.548 215.107 10.6923C215.377 11.1432 215.647 10.7825 215.916 10.0248C216.168 10.0609 216.42 12.0993 216.654 11.0891C216.906 10.7825 217.139 8.88838 217.391 10.4578C217.517 8.97857 217.625 9.33934 217.751 9.8264C217.877 9.30326 217.985 10.7644 218.111 10.7283C218.344 12.5503 218.596 11.4138 218.83 11.035C219.298 10.6382 219.783 11.3056 220.233 11.7205C220.701 12.1174 221.168 10.7825 221.618 12.4421C222.086 13.8491 222.535 13.2719 223.003 12.4962C223.237 13.2899 223.452 12.4601 223.686 12.7307C223.92 12.406 224.136 13.1997 224.37 13.9754C224.604 14.733 224.819 14.751 225.053 15.1118C225.287 15.3103 225.503 15.671 225.737 14.3181C225.97 13.5785 226.204 13.2358 226.42 14.733C226.528 13.0734 226.654 14.4444 226.762 15.202C226.87 15.4726 226.996 16.0499 227.104 15.3824C227.337 16.104 227.571 16.8075 227.805 16.6091C228.039 16.7895 228.273 16.6993 228.506 15.9236C228.74 15.6169 228.974 17.4208 229.226 16.8977C229.46 17.9981 229.711 17.3306 229.945 16.4106C230.179 15.6891 230.431 16.591 230.683 17.042C230.935 18.1424 231.168 17.5651 231.42 18.0702C231.672 19.6035 231.924 21.0827 232.176 19.0083C232.301 17.3487 232.427 20.1808 232.553 18.7016C232.679 18.9361 232.805 17.9259 232.931 16.7895C233.399 16.2483 233.848 16.6812 234.316 17.2945C234.783 15.5989 235.233 17.1142 235.683 16.4106C235.917 16.4106 236.132 15.2561 236.366 15.4726C236.6 15.6169 236.816 14.4805 237.05 15.4726C237.499 16.2663 237.949 15.671 238.399 15.6169C239.298 15.0577 240.197 14.8773 241.096 14.7691C241.996 13.0013 242.895 12.6766 243.794 14.2279C244.244 14.4083 244.694 13.7048 245.143 14.1738C245.593 13.6146 246.043 15.0577 246.51 14.3361C246.978 16.0499 247.409 16.0859 247.841 14.8052C248.273 15.7252 248.686 15.3103 249.1 15.3103C249.514 16.2122 249.909 17.6012 250.323 15.5267C250.521 13.8311 250.719 14.246 250.917 15.8514C251.115 17.024 251.312 18.3408 251.51 16.8075C251.708 15.3463 251.906 16.4287 252.104 16.9518C252.302 17.5832 252.499 16.4828 252.697 17.9981C253.093 17.9439 253.507 16.7353 253.92 18.3047C254.118 20.8122 254.334 16.7534 254.55 17.7996C254.766 18.3949 254.963 18.5934 255.179 18.8459C255.611 18.431 256.043 16.6632 256.51 19.369C256.69 19.8561 256.87 19.7839 257.05 20.4694C257.23 20.9204 257.41 20.3612 257.589 19.9824C257.949 19.1526 258.309 18.5753 258.669 19.6216C259.028 20.6498 259.388 22.111 259.73 19.351C260.089 18.2867 260.449 18.3588 260.791 19.369C261.151 19.9643 261.492 19.802 261.852 19.5133C262.212 20.0906 262.553 19.5133 262.913 18.7737C263.183 18.2506 263.435 18.3949 263.705 18.5392C263.974 18.6836 264.226 18.7737 264.496 18.1604C265.018 17.6193 265.557 18.9181 266.079 17.4749C266.6 17.4749 267.14 17.6914 267.661 16.7714C268.201 15.9777 268.723 15.3824 269.262 16.104C269.802 16.4648 270.323 15.3463 270.863 15.2561C271.402 15.5808 271.942 16.2663 272.482 15.1118C273.021 14.8954 273.561 13.8852 274.118 14.6608C274.658 14.7691 275.215 14.4083 275.773 14.9495C276.241 13.7228 276.69 15.8875 277.14 15.2201C277.59 13.7589 278.021 16.3024 278.435 15.653C278.867 13.4522 279.28 16.6993 279.694 16.1581C279.892 17.3306 280.108 15.6891 280.305 15.7432C280.503 15.202 280.719 17.3487 280.917 16.8977C281.331 19.7118 281.726 15.8875 282.122 17.5471C282.32 18.8279 282.518 19.6396 282.716 18.6475C282.913 19.9643 283.111 16.8255 283.309 18.3949C283.507 19.4953 283.705 18.7016 283.921 19.4592C284.118 20.7039 284.316 17.7275 284.532 19.7839C284.73 21.2271 284.946 21.5878 285.144 20.5235C285.341 20.6859 285.557 20.271 285.755 19.82C285.971 18.5392 286.169 19.6396 286.385 19.8381C286.6 18.9541 286.816 22.0568 287.032 21.0286C287.464 20.0725 287.895 21.1549 288.345 20.8843C288.615 20.8122 288.903 21.6059 289.172 21.5518C289.442 21.5337 289.712 21.3533 290 21.2451C290.27 19.5494 290.539 20.9384 290.827 20.4333C291.097 20.4153 291.367 20.7039 291.636 21.4074C291.906 20.7039 292.176 20.3612 292.446 20.5957C292.716 20.8302 292.985 21.2992 293.255 21.1188C293.795 21.3353 294.334 20.9745 294.874 21.0647C295.413 22.129 295.953 21.3714 296.493 20.7039C297.032 20.4333 297.572 19.8922 298.111 20.0906C299.191 20.8663 300.252 18.3408 301.331 18.7016C301.87 18.431 302.41 18.1243 302.932 17.8357C303.471 17.5471 304.011 17.8898 304.532 17.06C304.802 17.5291 305.072 17.1142 305.342 16.9338C305.611 16.2122 305.881 16.4467 306.151 16.2302C306.421 16.4106 306.691 15.5808 306.96 15.7973C307.23 13.3981 307.5 17.1683 307.77 15.4185C308.04 14.7871 308.309 13.7048 308.579 14.6789C308.849 13.5966 309.119 14.5707 309.388 14.6428C309.928 13.7589 310.468 16.3565 311.007 13.9213C311.547 15.202 312.086 13.9032 312.644 13.7409C312.914 14.3001 313.183 11.2154 313.453 13.2358C313.723 12.7487 313.993 11.6483 314.281 12.8028C314.82 15.0938 315.378 13.0554 315.935 12.6405C316.493 12.1715 317.032 13.813 317.59 12.2617C318.148 11.6844 318.705 10.8366 319.263 12.3158C319.82 12.4601 320.378 12.424 320.953 12.4962C321.403 13.9213 321.853 13.5605 322.284 13.1275C322.716 12.6946 323.148 12.1895 323.579 13.3079C324.425 17.0059 325.252 13.3079 326.079 14.4805C326.493 15.9055 326.907 16.0138 327.302 15.1299C327.716 14.5707 328.112 15.3283 328.525 15.7793C328.939 14.246 329.353 14.264 329.766 15.7973C330.18 16.5008 330.594 16.1761 331.025 16.9518C331.457 18.0883 331.871 16.2483 332.32 17.2945C332.752 16.0318 333.202 16.7534 333.651 17.7455C334.173 17.8538 334.694 19.351 335.234 18.2145C335.756 18.0161 336.277 17.6914 336.799 17.98C337.32 17.8718 337.842 18.3949 338.364 18.1785C338.885 18.0522 339.407 17.511 339.928 17.5651C340.45 16.9698 340.971 17.9981 341.493 17.3306C342.015 17.6373 342.536 17.493 343.058 16.7353C343.31 15.8695 343.579 15.7973 343.831 15.9236C344.083 14.3722 344.353 16.3204 344.605 16.1581C344.856 16.0859 345.126 16.3565 345.378 16.3746C345.63 16.1581 345.9 17.2224 346.151 15.7252C346.403 14.9134 346.673 16.3565 346.925 16.7895C347.177 17.042 347.446 15.1299 347.698 15.7612C347.95 17.1142 348.22 14.8412 348.472 16.6451C348.723 15.5808 348.993 16.4828 349.245 14.7691C349.497 16.1761 349.766 14.8954 350.036 13.344C350.306 10.6923 350.576 14.9675 350.846 13.4703C351.115 11.1252 351.385 10.7103 351.673 12.5322C351.943 12.9471 352.231 12.1534 352.5 14.1558C352.77 14.8773 353.058 14.264 353.328 14.0295C353.615 14.1016 353.885 13.9032 354.173 14.4624C354.731 14.2279 355.288 15.0036 355.828 14.0836C356.367 13.1456 356.925 12.875 357.446 14.0295C357.968 14.5346 358.49 15.1659 358.993 14.6969C359.982 14.8412 359.731 12.0091 360.54 13.5605C361.331 14.9856 362.914 14.1558 363.436 14.751C362.968 14.4805 362.716 12.8569 362.141 12.5864C361.565 12.4962 360.774 10.6923 360.108 10.566C359.425 11.1252 358.705 10.2413 357.914 9.93464C357.518 9.57386 357.123 9.33935 356.691 9.26719C356.277 9.15896 355.846 9.26719 355.396 9.53778C354.946 9.42954 354.497 9.75425 354.011 9.60994C353.544 9.44758 354.245 8.41935 353.741 8.79817C353.418 8.45543 352.069 7.13859 351.745 6.70565C351.439 6.14645 351.115 6.00212 350.81 6.59741C350.504 7.04839 350.198 6.16448 349.874 6.66957C349.569 6.39898 349.263 6.81389 348.939 6.77781C348.633 6.16449 348.31 7.42721 348.004 6.9582C347.698 7.21075 347.374 6.77781 347.051 6.83193C346.511 7.55349 346.007 7.10251 345.558 6.77781C345.09 7.96839 344.677 6.30879 344.281 6.43507C343.885 7.08447 343.525 5.51507 343.184 6.16448C342.842 5.85782 342.518 5.7135 342.194 5.64135C341.871 4.84763 341.565 5.73155 341.259 4.95587C340.953 4.61313 340.648 4.48685 340.324 4.7394C340 3.96372 339.676 4.05391 339.335 4.28842C338.993 3.98176 338.633 3.87353 338.238 3.9998C337.842 4.66725 337.428 4.12608 336.961 3.49471C336.493 3.33236 336.007 3.04374 335.45 3.69314C335.09 4.07196 334.73 3.80137 334.371 3.98176C334.011 3.62098 333.651 3.42255 333.292 3.80137C332.932 3.94569 332.572 4.25234 332.23 4.23431C331.889 4.23431 331.529 4.43274 331.187 3.80137C330.756 3.2602 330.396 3.85549 330.09 3.60294C329.784 3.29628 329.515 3.69314 329.281 3.24217C329.029 3.17001 328.795 3.07981 328.543 2.89942C328.274 3.04373 328.004 2.97157 327.644 2.53863C327.32 2.23197 326.961 1.781 326.601 2.15982C326.241 1.92531 325.845 2.55668 325.45 2.25002C325.054 2.53864 324.658 1.67277 324.245 1.85316C323.831 2.17786 323.417 1.67277 323.004 2.37629C322.59 2.48452 322.176 2.30413 321.781 2.57472C321.385 3.06177 320.989 2.62884 320.612 2.79119C320.234 3.0257 319.874 3.22412 319.532 3.65706C319.191 3.65706 318.867 3.90961 318.579 3.3504C318.291 2.32217 317.968 3.54882 317.662 3.40451C317.338 3.27824 317.014 3.53079 316.673 3.94569C316.331 3.17001 315.971 3.83744 315.612 4.54097C315.252 3.89156 314.874 5.46095 314.496 4.46881C314.119 4.36057 313.741 3.40451 313.345 4.66724C312.95 4.46881 312.554 4.21627 312.158 4.75744C311.763 5.24449 311.349 3.87353 310.953 4.75744C310.54 4.81156 310.144 4.63116 309.73 4.66724C309.424 4.6492 309.137 5.22645 308.849 4.70332C308.579 4.39666 308.309 3.78333 308.04 4.34254C307.77 4.28842 307.518 4.07195 307.248 4.34254C306.978 4.19822 306.709 5.00998 306.403 3.98176C305.935 3.04373 305.468 3.31432 305 3.80137C304.532 3.44059 304.083 3.94569 303.615 3.80137C303.165 4.23431 302.698 3.3504 302.248 4.07196C301.798 4.07196 301.349 3.63902 300.899 4.07196C300.45 4.07196 300 3.42255 299.55 4.05392C299.316 4.19823 299.101 3.94568 298.867 4.30646C298.633 4.45078 298.417 4.07195 298.183 4.61312C297.949 5.22645 297.734 5.04606 297.5 5.0641C297.266 5.28057 297.05 5.44292 296.816 5.19037C296.583 5.11821 296.367 4.91979 296.133 4.95587C295.899 5.10018 295.683 5.42488 295.449 5.26253C295.216 4.9739 294.982 5.35273 294.766 5.67743C294.532 5.19038 294.298 6.25467 294.065 5.82173C293.831 6.09232 293.597 6.02017 293.363 6.07429C293.129 5.94802 292.895 5.78567 292.662 5.87586C292.428 6.16449 292.176 5.40684 291.942 6.27271C291.708 6.1284 291.457 6.27272 291.223 6.18252C290.971 6.6335 290.737 6.16448 290.485 6.34487C290.234 5.58723 290 6.18252 289.748 6.30879C289.496 6.20056 289.244 6.59742 288.993 6.57938C288.741 6.81389 288.489 7.15663 288.237 6.65154C287.985 6.81389 287.716 6.868 287.464 6.81388C287.212 6.72369 286.942 6.75977 286.672 6.36291C286.457 5.78566 286.223 5.479 286.007 5.65939C285.791 5.65939 285.575 5.94801 285.359 6.29075C285.144 6.50722 284.928 6.02017 284.712 5.87586C284.496 5.37077 284.28 5.67743 284.082 6.12841C283.867 6.52527 283.651 5.73154 283.435 5.89389C283.219 5.89389 283.003 5.73155 282.787 6.00213C282.572 5.76763 282.356 6.05624 282.14 6.21859C281.924 6.50722 281.69 6.2186 281.475 5.94802C281.025 6.16449 280.593 6.52527 280.18 5.94802C279.766 6.3088 279.388 5.69546 279.01 6.14644C278.633 5.92997 278.273 6.05624 277.931 6.16448C277.59 6.5433 277.248 6.41703 276.924 6.6335C276.6 6.56134 276.295 6.29075 275.971 6.79584C275.665 6.97623 275.359 7.22879 275.054 7.2829C274.748 7.58957 274.442 7.6978 274.136 7.73388C273.831 7.78799 273.507 7.67976 273.183 7.91426C272.715 8.45544 272.248 8.38328 271.762 8.36524C271.295 8.54563 270.809 8.23896 270.323 8.52758C269.838 8.18484 269.352 8.5276 268.866 8.2029C268.381 8.32917 267.877 7.80603 267.392 8.79817C266.888 7.8421 266.384 8.23897 265.881 8.68994C265.377 9.46562 264.874 8.16681 264.352 8.83426C263.848 7.60761 263.327 7.87818 262.805 8.27504C262.284 7.58956 261.78 8.32916 261.259 8.74406C260.737 9.68209 260.215 9.05073 259.694 8.50956C259.172 9.10484 258.651 8.50955 258.111 8.61778C257.589 9.03268 257.05 9.5017 256.528 8.74406C255.989 8.92445 255.467 8.87033 254.928 8.59974C254.388 9.0868 253.866 8.59974 253.327 8.85229C252.787 8.83425 252.248 8.36525 251.726 8.78014C251.186 9.01465 250.647 8.79818 250.107 8.78014C249.568 8.87034 249.028 9.14091 248.489 9.24915C248.183 9.59189 247.841 9.84444 247.427 9.44758C247.032 9.55581 246.582 9.51974 246.079 8.7621C245.593 8.38328 245.071 8.45543 244.514 8.49151C243.956 8.31112 243.381 8.3472 242.787 8.50956C242.194 8.50956 241.564 8.47347 240.953 8.59974C240.323 8.13073 239.694 8.72602 239.064 8.4374C238.435 8.07662 237.805 7.80603 237.194 8.18485C236.582 7.19271 235.971 8.78013 235.395 8.47347C234.819 8.47347 234.262 8.79818 233.74 8.96053C233.219 9.53778 232.715 9.37543 232.265 8.58171C231.816 9.41151 231.384 8.96052 230.935 9.17699C230.503 9.19503 230.053 9.35739 229.622 8.78014C229.19 8.79818 228.74 9.14092 228.309 8.63583C227.877 8.79818 227.427 9.03268 226.978 8.87033C226.582 9.8264 226.204 9.0868 225.827 9.12287C225.467 9.17699 225.125 8.68995 224.783 8.63583C224.442 8.25701 224.136 8.54563 223.812 8.3472C223.488 8.81621 223.183 8.1127 222.877 8.2029C222.571 8.2029 222.265 7.9323 221.96 7.71583C221.654 7.66172 221.33 7.53544 221.006 7.71583C220.683 7.33702 220.359 7.73388 220.017 7.6076C219.675 7.6076 219.316 7.71584 218.938 7.33702C218.578 7.15663 218.219 7.37309 217.841 7.26486C217.463 7.39113 217.103 7.31897 216.726 7.1927C216.348 7.46329 215.97 7.55349 215.575 7.75192C215.197 7.4633 214.801 7.91426 214.424 7.17466C214.046 6.90407 213.65 7.33701 213.272 7.62563C212.895 7.98641 212.517 7.95035 212.139 7.10252C211.654 7.28291 211.204 7.26485 210.772 7.17466C210.341 6.97623 209.909 6.74173 209.513 6.77781C209.1 6.09233 208.722 6.32683 208.344 6.34487C207.967 6.66957 207.589 6.57937 207.229 6.21859C206.87 6.00213 206.51 5.74959 206.168 5.73155C205.826 5.64135 205.467 5.78566 205.125 5.56919C204.783 5.40684 204.441 5.28057 204.082 5.31664C203.74 5.37076 203.38 4.72135 203.021 4.91978C202.841 4.73939 202.661 4.50489 202.481 4.28842C202.301 4.16215 202.103 4.52293 201.923 4.08999C201.546 3.94568 201.15 4.34254 200.736 4.37862C200.323 4.18019 199.909 4.50489 199.459 4.41469C199.01 4.01783 198.56 4.34254 198.075 4.05392C197.517 3.71118 196.941 3.24216 196.384 3.80137C195.826 4.25235 195.269 4.14412 194.693 4.07196C194.136 3.38648 193.578 4.10804 193.021 4.32451C192.463 4.28843 191.905 4.79352 191.348 4.37862C190.79 4.30646 190.233 4.63117 189.675 4.57705C189.118 4.21627 188.56 4.70332 188.02 4.75744C187.463 4.50489 186.905 4.36057 186.366 4.91978C185.808 4.70331 185.269 4.77548 184.711 5.02803C184.154 4.59509 183.614 5.40685 183.056 5.04607C182.499 4.39666 181.959 5.10018 181.402 4.95587C180.898 5.1543 180.43 4.90175 179.981 4.66724C179.531 4.21626 179.1 4.36059 178.686 4.52294C178.272 4.28843 177.876 3.9096 177.499 4.01783C177.121 4.18018 176.743 3.47667 176.366 3.85549C176.006 4.19823 175.628 3.53079 175.269 3.54883C174.909 3.11589 174.531 3.78333 174.171 3.15197C173.794 3.22412 173.416 3.51275 173.038 2.82726C172.643 2.26806 172.247 3.42255 171.815 2.55668C171.402 2.62883 170.952 1.49238 170.484 2.23197C170.017 1.16767 169.531 1.90727 169.009 2.23197C168.452 2.30413 167.912 1.45629 167.373 2.08766C166.833 1.92531 166.33 1.94335 165.808 2.35825C165.304 2.14178 164.801 2.28609 164.315 2.35825C163.83 2.66491 163.344 2.80922 162.876 2.88138C161.923 3.24216 161.006 3.42255 160.107 3.60294C159.207 4.21627 158.308 4.30646 157.409 4.36058C156.509 5.08214 155.628 5.47899 154.711 4.99194C153.812 4.99194 152.876 6.00213 151.941 5.31664C150.988 5.7135 150.017 5.46097 149.009 5.17234C148.74 5.44293 148.47 5.37077 148.2 5.22646C147.948 5.08214 147.678 4.88371 147.427 4.88371C146.905 4.59509 146.383 4.9739 145.772 4.66724C145.322 4.43273 144.909 4.48685 144.513 4.68528C144.117 4.84763 143.739 4.57704 143.362 4.79351C143.002 5.33468 142.642 5.53312 142.283 5.22646C141.941 5.37077 141.599 4.84764 141.257 5.29861C140.916 5.49704 140.574 5.29861 140.232 5.479C139.891 5.67743 139.531 5.8037 139.153 5.89389C138.973 5.94801 138.775 6.07429 138.596 6.30879C138.398 6.56134 138.218 6.61545 138.002 6.34487C137.606 6.05624 137.193 6.09232 136.743 6.27271C136.401 6.3629 136.06 6.1284 135.736 6.18252C135.394 6.1284 135.07 6.34486 134.729 6.27271C134.621 6.09232 134.513 5.42489 134.387 5.55116C134.279 4.99195 134.171 5.1543 134.045 5.42489C133.937 5.35273 133.829 5.74958 133.703 5.7135C133.596 6.25467 133.488 5.89389 133.362 6.09232C133.146 5.74958 132.912 6.7778 132.696 6.09232C132.354 5.55115 132.031 6.39898 131.689 6.02016C131.347 5.74958 131.024 6.41703 130.682 5.91193C130.412 6.07429 130.142 6.11037 129.872 5.74959C129.603 5.37077 129.333 5.44291 129.063 5.37076C128.793 4.9739 128.524 5.55115 128.272 5.31664C128.002 5.19037 127.75 5.49704 127.48 5.83978C127.211 5.37076 126.959 5.73154 126.689 5.51507C126.419 5.56919 126.167 6.23664 125.916 5.74959C125.664 4.81156 125.394 5.40685 125.142 5.94802C124.89 6.79585 124.621 6.38096 124.369 6.07429C124.117 6.02017 123.847 6.34487 123.595 6.30879C123.344 6.5433 123.092 6.70564 122.822 6.27271C122.318 6.38094 121.797 5.76762 121.293 6.48918C120.88 6.92212 120.484 6.74173 120.07 6.74173C119.657 6.09232 119.261 6.48918 118.847 6.868C118.433 6.92212 118.038 7.33702 117.624 6.9582C117.21 7.21075 116.797 7.67976 116.383 7.26486C115.969 6.83192 115.556 7.26486 115.142 7.5174C114.728 7.9323 114.315 6.94016 113.883 7.6076C113.469 7.55349 113.038 8.25701 112.606 7.87819C112.174 8.94249 111.743 8.36524 111.311 7.84211C110.879 7.30094 110.448 7.96838 109.998 7.98642C109.567 7.75192 109.117 7.53545 108.667 7.93231C108.2 8.09466 107.714 7.9323 107.246 7.96838C107.013 7.78799 106.779 7.78799 106.545 7.69779C106.311 7.66171 106.077 7.69779 105.843 7.84211C105.61 8.09465 105.376 8.00447 105.142 7.87819C104.908 7.80604 104.674 7.73387 104.441 7.82406C103.973 7.75191 103.505 7.98642 103.038 7.64368C102.57 7.39113 102.102 7.22878 101.635 7.33702C101.401 7.10251 101.167 7.10251 100.933 7.26486C100.7 7.58956 100.466 7.26486 100.232 7.53545C99.7643 7.48133 99.3146 7.21075 98.847 7.53545C98.6132 7.46329 98.3974 7.48132 98.1635 7.62563C97.9297 7.62563 97.7139 7.95034 97.4801 7.62563C97.0304 7.40917 96.5988 7.73387 96.1671 7.69779C95.9513 7.55348 95.7534 7.84211 95.5376 8.04054C95.3398 8.04054 95.1239 8.16681 94.9261 7.98642C94.5304 7.93231 94.1167 7.76996 93.739 8.00447C93.5412 8.20289 93.3433 8.04054 93.1455 8.23897C92.9477 8.36524 92.7498 8.47347 92.552 8.47347C92.1563 8.92445 91.7606 8.45543 91.3649 8.72601C90.9692 8.97856 90.5556 8.83426 90.1419 8.90642C89.944 8.99661 89.7282 9.35738 89.5124 9.37542C89.2966 9.48365 89.0807 9.28523 88.8649 9.19503C88.4332 9.19503 87.9836 9.39347 87.516 9.10485C87.2462 9.33935 86.9764 9.05073 86.7246 8.90642C86.4728 8.96053 86.221 8.78013 85.9692 8.85229C85.7174 8.50955 85.4836 8.54563 85.2498 8.59974C85.0159 8.90641 84.7821 8.85229 84.5483 8.85229C84.3145 9.10483 84.0987 9.14092 83.8648 9.26719C83.649 9.64601 83.4152 9.15896 83.1994 9.0868C83.0915 8.88837 82.9835 8.88837 82.8756 8.94249C82.7677 8.87033 82.6598 8.81622 82.5519 8.50956C82.3361 8.3472 82.1202 7.57153 81.9224 8.25701C81.7066 7.71584 81.5087 8.00445 81.2929 8.07661C81.0771 8.18484 80.8792 7.58956 80.6634 8.31113C80.5555 8.04054 80.4476 7.87818 80.3576 7.96838C80.2497 7.91426 80.1418 7.86014 80.0519 8.07661C79.944 7.62563 79.836 7.75191 79.7461 8.02249C79.6382 7.69779 79.5303 8.11269 79.4403 7.57152C79.3324 8.04053 79.2245 7.66171 79.1166 7.95034C79.0087 8.70798 78.9008 8.18484 78.7929 7.69779C78.577 7.86014 78.3612 8.14878 78.1454 7.35506C78.0375 6.99428 77.9295 7.01232 77.8216 6.90408C77.7137 6.83193 77.6058 7.17466 77.4979 7.31897C77.2821 7.39113 77.0482 7.44525 76.8144 7.01231C76.5806 7.24682 76.3468 7.08447 76.113 7.1927C75.8792 6.84996 75.6274 6.39898 75.3936 6.868C74.9079 7.10251 74.3863 6.90408 73.8468 6.83193C73.595 7.57153 73.3612 7.01231 73.1273 6.92211C73.0194 7.17466 72.8935 6.79585 72.7856 6.68761C72.6777 6.75977 72.5698 6.0382 72.4439 6.99427C72.0122 6.99427 71.5806 6.41702 71.1849 7.12054C70.7892 6.99427 70.3935 7.31898 70.0158 7.40917C69.6381 7.49937 69.2604 7.84211 68.8827 7.67976C68.7568 7.08448 68.6309 7.33701 68.505 7.5174C68.3791 7.44525 68.2532 7.42721 68.1273 7.89622C67.8755 8.13073 67.6237 8.09465 67.3719 8.09465C67.1201 7.58956 66.8683 8.00446 66.5985 8.23897C66.3287 8.38328 66.0589 8.52759 65.7892 8.4374C65.5194 8.68994 65.2316 8.47348 64.9438 8.58171C64.656 8.74406 64.3503 8.78014 64.0445 8.68994C63.5769 8.47347 63.1093 8.27504 62.6416 8.6719C62.174 8.6719 61.6884 8.81622 61.2028 8.7621C60.7172 8.83426 60.2315 8.27504 59.7639 8.6719C59.2783 8.72602 58.7927 8.38328 58.3251 8.6719C57.8214 9.14091 57.3178 8.23897 56.8142 8.4374C56.3106 8.61779 55.807 8.32917 55.3034 8.65387C54.7998 8.88838 54.2962 9.14092 53.7926 8.78014C53.289 9.01465 52.7854 9.60993 52.2818 8.72601C51.7782 8.09465 51.2746 8.97857 50.789 8.70799C50.2854 8.78014 49.7818 9.19504 49.2962 8.83426C48.9904 9.06877 48.7027 8.49151 48.3969 8.52758C48.0911 8.94248 47.8034 8.4374 47.4976 8.68994C47.1919 8.96053 46.9041 8.81621 46.5983 8.92444C46.2926 9.26719 46.0048 8.54563 45.699 8.96053C45.3933 8.83426 45.1055 8.63583 44.7998 8.36524C44.494 8.05858 44.2062 8.09466 43.9005 8.78014C43.5947 8.67191 43.3069 8.81622 43.0012 8.81622C42.6954 9.03268 42.4076 9.06876 42.1019 9.0868C41.7961 9.05072 41.5084 9.0868 41.2026 8.96053C40.8968 8.68995 40.6091 8.96053 40.3033 9.10485C39.9976 9.21308 39.7098 9.21308 39.404 9.10485C39.0983 9.53778 38.8105 9.46562 38.5047 9.19503C38.199 9.21307 37.9112 9.01464 37.6054 9.42953C37.2997 9.7362 37.0119 9.60994 36.7062 9.35739C36.4004 9.73621 36.1126 9.24915 35.8069 8.9966C35.5011 9.01464 35.2133 9.44758 34.9076 9.33935C34.6018 9.53778 34.314 9.06876 34.0083 9.44758C33.7025 9.60993 33.4148 9.12288 33.109 9.28523C32.8032 8.90641 32.5155 8.72601 32.2097 8.97856C31.904 8.85229 31.6162 9.26719 31.3104 9.46562C31.0047 9.06876 30.7169 9.28522 30.4111 9.30326C30.1054 9.50169 29.8176 9.30327 29.5118 9.53778C28.9183 9.39347 28.3248 9.88052 27.7133 9.59189C27.4075 9.73621 27.1197 9.9166 26.814 9.80837C26.5082 9.89856 26.2204 9.71817 25.9147 9.53778C25.6089 9.75425 25.3212 9.80837 25.0154 9.80837C24.7096 9.80837 24.4219 9.75425 24.1161 9.73621C23.5226 9.5919 22.9291 9.77229 22.3175 9.93464C21.724 10.3135 21.1305 10.115 20.519 9.88051C19.9254 10.0248 19.3319 8.99661 18.7204 9.53778C18.1269 9.48366 17.5333 10.2052 16.9218 10.0248C16.3283 10.4938 15.7347 10.548 15.1232 10.3315C14.5297 10.0429 13.9362 10.8185 13.3247 10.1691C12.7311 10.3676 12.1376 10.1511 11.5261 10.1691C10.9325 10.1331 10.339 10.2413 9.7275 10.2954C9.13397 10.2413 8.54044 10.3134 7.92892 10.2774C7.33539 10.3856 6.74186 10.3315 6.13034 10.4397C5.59077 10.4578 5.0512 10.4758 4.49364 10.4938C4.43968 10.4938 4.38572 10.4938 4.33177 10.4938C3.73824 10.5119 0.141082 11.7025 -1.04598 11.7385C0.105111 11.7385 8.09079 12.7668 9.24188 14.1016C9.81743 13.7048 10.393 13.5605 10.9505 13.5966L11.3282 13.6507Z" fill="#CBC18E"/>
</g>
</g>
<defs>
<filter id="filter0_d_1_205" x="-4.66459" y="1.67822" width="371.719" height="30.3283" filterUnits="userSpaceOnUse" color-interpolation-filters="sRGB">
<feFlood flood-opacity="0" result="BackgroundImageFix"/>
<feColorMatrix in="SourceAlpha" type="matrix" values="0 0 0 0 0 0 0 0 0 0 0 0 0 0 0 0 0 0 127 0" result="hardAlpha"/>
<feOffset dy="3.61861"/>
<feGaussianBlur stdDeviation="1.8093"/>
<feColorMatrix type="matrix" values="0 0 0 0 0 0 0 0 0 0 0 0 0 0 0 0 0 0 0.3 0"/>
<feBlend mode="normal" in2="BackgroundImageFix" result="effect1_dropShadow_1_205"/>
<feBlend mode="normal" in="SourceGraphic" in2="effect1_dropShadow_1_205" result="shape"/>
</filter>
<radialGradient id="paint0_radial_1_205" cx="0" cy="0" r="1" gradientUnits="userSpaceOnUse" gradientTransform="translate(183.475 12.8275) rotate(-180) scale(180.593 12.4303)">
<stop stop-color="#000100"/>
<stop offset="1" stop-color="#000100" stop-opacity="0"/>
</radialGradient>
<clipPath id="clip0_1_205">
<rect width="364" height="26.1494" fill="white"/>
</clipPath>
</defs>
</svg>
