<svg width="12" height="16" viewBox="0 0 12 16" fill="none" xmlns="http://www.w3.org/2000/svg">
<path fill-rule="evenodd" clip-rule="evenodd" d="M10.0675 5.88312C10.0695 6.82868 9.77255 7.74955 9.2209 8.50833L5.75287 13.238L2.28485 8.50833C1.8788 7.94724 1.60868 7.29562 1.4967 6.60702C1.38471 5.91841 1.43404 5.21246 1.64064 4.54714C1.84724 3.88182 2.20521 3.27612 2.68515 2.77979C3.16509 2.28347 3.75331 1.91067 4.40149 1.69203C5.04967 1.47339 5.73932 1.41515 6.41378 1.52207C7.08825 1.629 7.72829 1.89806 8.28133 2.30714C8.83438 2.71621 9.28465 3.25365 9.59516 3.87529C9.90567 4.49693 10.0676 5.18505 10.0675 5.88312ZM11.5057 5.88312C11.5057 7.19719 11.0848 8.40928 10.3743 9.38797L6.65128 14.4638L5.75287 15.6897L4.85351 14.4638L1.1314 9.38797C0.589369 8.64015 0.228557 7.77146 0.0786094 6.85329C-0.0713382 5.93511 -0.00614225 4.99364 0.268841 4.10625C0.543824 3.21885 1.02075 2.41085 1.66042 1.74863C2.3001 1.08641 3.08427 0.588878 3.94851 0.296905C4.81274 0.00493158 5.73238 -0.0731462 6.63186 0.0690865C7.53134 0.211319 8.38499 0.569803 9.12266 1.11508C9.86034 1.66036 10.461 2.37688 10.8753 3.20576C11.2895 4.03463 11.5056 4.95222 11.5057 5.88312ZM5.75287 7.84442C6.26146 7.84442 6.74921 7.63779 7.10884 7.26997C7.46846 6.90215 7.6705 6.40329 7.6705 5.88312C7.6705 5.36295 7.46846 4.86408 7.10884 4.49626C6.74921 4.12845 6.26146 3.92181 5.75287 3.92181C5.24429 3.92181 4.75653 4.12845 4.39691 4.49626C4.03728 4.86408 3.83525 5.36295 3.83525 5.88312C3.83525 6.40329 4.03728 6.90215 4.39691 7.26997C4.75653 7.63779 5.24429 7.84442 5.75287 7.84442Z" fill="black"/>
</svg>
