<svg width="21" height="56" viewBox="0 0 21 56" fill="none" xmlns="http://www.w3.org/2000/svg">
<path d="M0 45.5846V10.156C0 4.54583 4.55039 0 10.126 0C15.7016 0 20.252 4.56387 20.252 10.156H16.1692C16.1692 6.81875 13.4534 4.09485 10.126 4.09485C6.79862 4.09485 4.08276 6.81875 4.08276 10.156V45.5846C4.08276 48.9218 6.79862 51.6457 10.126 51.6457C13.4534 51.6457 16.1692 48.9218 16.1692 45.5846V24.028C16.1692 22.8915 17.0865 21.9715 18.2196 21.9715C19.3527 21.9715 20.27 22.8915 20.27 24.028V45.5846C20.27 51.1947 15.7196 55.7405 10.144 55.7405C4.56838 55.7405 0.0179827 51.1767 0.0179827 45.5846H0Z" fill="#EB6060"/>
</svg>
